<svg width="40" height="36" viewBox="0 0 40 36" fill="none" xmlns="http://www.w3.org/2000/svg">
<path d="M39.3764 17.1354C39.3764 26.3228 30.7102 33.7707 20.0215 33.7707C18.1046 33.7732 16.1955 33.5288 14.3433 33.0435C12.9304 33.7469 9.68604 35.0968 4.22798 35.9761C3.74411 36.0521 3.37636 35.5578 3.56749 35.1158C4.42395 33.1291 5.19814 30.4817 5.4304 28.0672C2.46669 25.1441 0.666687 21.318 0.666687 17.1354C0.666687 7.94788 9.33282 0.5 20.0215 0.5C30.7102 0.5 39.3764 7.94788 39.3764 17.1354ZM11.5538 10.0059C11.233 10.0059 10.9253 10.1311 10.6984 10.3539C10.4716 10.5768 10.3441 10.879 10.3441 11.1942C10.3441 11.5093 10.4716 11.8115 10.6984 12.0344C10.9253 12.2572 11.233 12.3824 11.5538 12.3824H28.4893C28.8101 12.3824 29.1178 12.2572 29.3446 12.0344C29.5715 11.8115 29.6989 11.5093 29.6989 11.1942C29.6989 10.879 29.5715 10.5768 29.3446 10.3539C29.1178 10.1311 28.8101 10.0059 28.4893 10.0059H11.5538ZM11.5538 15.9471C11.233 15.9471 10.9253 16.0723 10.6984 16.2951C10.4716 16.518 10.3441 16.8202 10.3441 17.1354C10.3441 17.4505 10.4716 17.7527 10.6984 17.9756C10.9253 18.1984 11.233 18.3236 11.5538 18.3236H28.4893C28.8101 18.3236 29.1178 18.1984 29.3446 17.9756C29.5715 17.7527 29.6989 17.4505 29.6989 17.1354C29.6989 16.8202 29.5715 16.518 29.3446 16.2951C29.1178 16.0723 28.8101 15.9471 28.4893 15.9471H11.5538ZM11.5538 21.8883C11.233 21.8883 10.9253 22.0135 10.6984 22.2363C10.4716 22.4592 10.3441 22.7614 10.3441 23.0765C10.3441 23.3917 10.4716 23.6939 10.6984 23.9168C10.9253 24.1396 11.233 24.2648 11.5538 24.2648H21.2312C21.552 24.2648 21.8597 24.1396 22.0866 23.9168C22.3134 23.6939 22.4409 23.3917 22.4409 23.0765C22.4409 22.7614 22.3134 22.4592 22.0866 22.2363C21.8597 22.0135 21.552 21.8883 21.2312 21.8883H11.5538Z" fill="#8E8E8E"/>
</svg>
