<svg width="30" height="30" viewBox="0 0 30 30" fill="none" xmlns="http://www.w3.org/2000/svg">
<path d="M22.9688 15.9238L13.3525 25.54C12.2976 26.5949 10.8669 27.1875 9.37503 27.1875C7.88318 27.1875 6.45243 26.5949 5.39753 25.54C4.34264 24.4851 3.75 23.0544 3.75 21.5625C3.75 20.0707 4.34264 18.6399 5.39753 17.585L19.0725 3.91001C19.4209 3.56185 19.8344 3.2857 20.2894 3.09733C20.7445 2.90897 21.2322 2.81208 21.7247 2.81219C22.2172 2.81231 22.7048 2.90943 23.1598 3.09801C23.6148 3.28659 24.0281 3.56293 24.3763 3.91126C24.7244 4.25959 25.0006 4.67309 25.189 5.12814C25.3773 5.5832 25.4742 6.0709 25.4741 6.5634C25.474 7.05589 25.3769 7.54355 25.1883 7.99851C24.9997 8.45348 24.7234 8.86685 24.375 9.21501L10.69 22.9C10.335 23.2404 9.86049 23.4263 9.36872 23.4201C8.87695 23.4139 8.40732 23.2147 8.06103 22.8654C7.71475 22.5162 7.51955 22.0449 7.51749 21.5531C7.51543 21.0613 7.70669 20.5884 8.05003 20.2363L17.8125 10.4738M10.7013 22.8875L10.6888 22.9" stroke="#B3B3B3" stroke-width="2.3125" stroke-linecap="round" stroke-linejoin="round"/>
</svg>
