<svg width="50" height="51" viewBox="0 0 50 51" fill="none" xmlns="http://www.w3.org/2000/svg">
<path d="M21.125 4.67917C22.5979 4.67917 23.4375 6.14584 23.4375 7.61875V16.6458H21.5729C21.2103 15.7494 20.5472 15.0071 19.6973 14.546C18.8474 14.0848 17.8635 13.9337 16.9144 14.1184C15.9653 14.3031 15.1099 14.8122 14.4949 15.5584C13.8799 16.3045 13.5436 17.2414 13.5436 18.2083C13.5436 19.1753 13.8799 20.1121 14.4949 20.8583C15.1099 21.6045 15.9653 22.1136 16.9144 22.2983C17.8635 22.483 18.8474 22.3318 19.6973 21.8707C20.5472 21.4096 21.2103 20.6672 21.5729 19.7708H23.4375V42.475C23.4375 43.7167 22.9125 44.9521 21.8062 45.5167C20.8031 46.0421 19.6886 46.3193 18.5562 46.325C15.4104 46.325 13.0708 44.7333 11.5646 42.85C10.5214 41.5503 9.79402 40.0263 9.43958 38.3979C8.4667 38.1108 7.56567 37.6209 6.79583 36.9604C5.31666 35.6875 4.16666 33.6458 4.16666 30.6375C4.16666 29.0646 4.27916 27.6938 4.5625 26.5417H13.3333C14.7458 26.5417 15.9167 27.5833 16.1146 28.9396C15.2217 29.309 14.485 29.9772 14.0305 30.8299C13.576 31.6826 13.4319 32.6668 13.6231 33.614C13.8142 34.5611 14.3286 35.4124 15.0782 36.0222C15.8278 36.6319 16.7661 36.9621 17.7323 36.9564C18.6986 36.9506 19.6328 36.6092 20.375 35.9905C21.1173 35.3719 21.6215 34.5145 21.8013 33.5651C21.9811 32.6157 21.8254 31.6334 21.3607 30.7861C20.8961 29.9389 20.1514 29.2795 19.2542 28.9208C19.1447 27.4253 18.4734 26.0265 17.3751 25.0055C16.2768 23.9845 14.8329 23.4169 13.3333 23.4167H6.33333C6.6453 23.1588 6.99257 22.9469 7.36458 22.7875C7.14983 22.022 7.02537 21.234 6.99375 20.4396C6.925 18.9083 7.15416 17.3146 7.60833 15.8958C8.05833 14.5 8.77083 13.1396 9.77083 12.2C10.3981 11.5888 11.1928 11.1776 12.0542 11.0188C12.4687 9.26875 13.525 7.82292 14.8729 6.775C16.6042 5.425 18.8729 4.67917 21.1229 4.67917H21.125ZM26.5625 35.9167H30C31.5747 35.9167 33.0849 35.2911 34.1984 34.1776C35.3119 33.0641 35.9375 31.5539 35.9375 29.9792V26.2396C36.8339 25.877 37.5762 25.2139 38.0374 24.364C38.4985 23.5141 38.6496 22.5302 38.4649 21.5811C38.2802 20.6319 37.7712 19.7766 37.025 19.1616C36.2788 18.5466 35.3419 18.2103 34.375 18.2103C33.408 18.2103 32.4712 18.5466 31.725 19.1616C30.9788 19.7766 30.4698 20.6319 30.2851 21.5811C30.1003 22.5302 30.2515 23.5141 30.7126 24.364C31.1737 25.2139 31.9161 25.877 32.8125 26.2396V29.9792C32.8125 30.7251 32.5162 31.4405 31.9887 31.9679C31.4613 32.4954 30.7459 32.7917 30 32.7917H26.5625V7.61875C26.5625 6.14584 27.4021 4.67917 28.875 4.67917C31.1292 4.67917 33.3958 5.425 35.1271 6.775C36.475 7.82292 37.5312 9.27083 37.9458 11.0188C38.8208 11.1646 39.6 11.6104 40.2292 12.2C41.2292 13.1396 41.9417 14.4979 42.3917 15.8958C42.8458 17.3146 43.075 18.9083 43.0062 20.4396C42.9708 21.2229 42.8562 22.0229 42.6354 22.7875L42.7729 22.85C43.5437 23.2125 44.1687 23.7812 44.6354 24.5375C45.5208 25.9646 45.8333 28.0187 45.8333 30.6375C45.8333 33.6479 44.6833 35.6917 43.2042 36.9604C42.4337 37.6212 41.532 38.1111 40.5583 38.3979C40.2044 40.0261 39.4778 41.5501 38.4354 42.85C36.9292 44.7333 34.5896 46.325 31.4417 46.325C30.3095 46.3199 29.195 46.0435 28.1917 45.5187C27.0875 44.9521 26.5625 43.7167 26.5625 42.475V35.9167ZM16.6667 18.2083C16.6667 17.9321 16.7764 17.6671 16.9718 17.4718C17.1671 17.2764 17.4321 17.1667 17.7083 17.1667C17.9846 17.1667 18.2495 17.2764 18.4449 17.4718C18.6403 17.6671 18.75 17.9321 18.75 18.2083C18.75 18.4846 18.6403 18.7496 18.4449 18.9449C18.2495 19.1403 17.9846 19.25 17.7083 19.25C17.4321 19.25 17.1671 19.1403 16.9718 18.9449C16.7764 18.7496 16.6667 18.4846 16.6667 18.2083ZM17.7083 31.75C17.4321 31.75 17.1671 31.8597 16.9718 32.0551C16.7764 32.2504 16.6667 32.5154 16.6667 32.7917C16.6667 33.0679 16.7764 33.3329 16.9718 33.5282C17.1671 33.7236 17.4321 33.8333 17.7083 33.8333C17.9846 33.8333 18.2495 33.7236 18.4449 33.5282C18.6403 33.3329 18.75 33.0679 18.75 32.7917C18.75 32.5154 18.6403 32.2504 18.4449 32.0551C18.2495 31.8597 17.9846 31.75 17.7083 31.75ZM33.3333 22.375C33.3333 22.6513 33.4431 22.9162 33.6384 23.1116C33.8338 23.3069 34.0987 23.4167 34.375 23.4167C34.6513 23.4167 34.9162 23.3069 35.1116 23.1116C35.3069 22.9162 35.4167 22.6513 35.4167 22.375C35.4167 22.0987 35.3069 21.8338 35.1116 21.6384C34.9162 21.4431 34.6513 21.3333 34.375 21.3333C34.0987 21.3333 33.8338 21.4431 33.6384 21.6384C33.4431 21.8338 33.3333 22.0987 33.3333 22.375Z" fill="white"/>
</svg>
