<svg width="50" height="50" viewBox="0 0 50 50" fill="none" xmlns="http://www.w3.org/2000/svg">
<path d="M37.5 34.375H18.0039L14 37.793L9.99609 34.375H1.5625V36.7188C1.5625 39.7061 3.62598 42.1396 6.17773 42.1875C6.41504 43.6641 6.98926 44.998 7.85352 46.042C9.13184 47.5859 10.9902 48.4375 13.0859 48.4375H25.9766C28.0723 48.4375 29.9307 47.5859 31.209 46.04C32.0732 44.9961 32.6475 43.6621 32.8848 42.1855C34.2402 42.1611 35.458 41.4629 36.3027 40.3662C37.0917 39.3149 37.5124 38.0331 37.5 36.7188V34.375ZM10.2539 31.25L13.9971 34.0029L17.7734 31.25H37.5V30.4688C37.4989 29.5686 37.1875 28.6963 36.6182 27.999C36.049 27.3017 35.2567 26.8219 34.375 26.6406C34.2949 23.7412 33.1055 21.3145 30.9072 19.6094C28.874 18.0234 26.1572 17.1875 23.0469 17.1875H16.0156C9.35352 17.1875 4.84082 20.9736 4.6875 26.6406C3.80577 26.8219 3.01351 27.3017 2.44427 27.999C1.87502 28.6963 1.5636 29.5686 1.5625 30.4688V31.25H10.2539Z" fill="white"/>
<path d="M45.2227 9.375H37.9385L38.8096 5.89258L43.1641 4.39453L42.1875 1.5625L36.1328 3.51562L34.7178 9.375H20.3125V12.5H22.1436L22.3252 14.0625H23.0469C26.8555 14.0625 30.2402 15.127 32.8242 17.1406C34.2615 18.248 35.4266 19.6693 36.2305 21.2959C36.7259 22.305 37.0785 23.3781 37.2783 24.4844C38.7335 25.3803 39.8126 26.7756 40.3139 28.4093C40.8151 30.043 40.7042 31.8034 40.002 33.3613C40.4134 34.4329 40.6246 35.5709 40.625 36.7187C40.625 38.9004 39.8828 40.9795 38.5352 42.5732C37.7012 43.5668 36.6329 44.337 35.4268 44.8144C35.0157 45.9858 34.4033 47.0764 33.6172 48.0371C33.502 48.1758 33.3838 48.3115 33.2627 48.4424H40.625C42.1875 48.4424 42.8711 47.6611 43.0664 46.1963L46.6211 12.5049H48.4375V9.375H45.2227Z" fill="white"/>
</svg>
