<svg width="50" height="51" viewBox="0 0 50 51" fill="none" xmlns="http://www.w3.org/2000/svg">
<path d="M15.4167 15.0833H9.58334C9.25182 15.0833 8.93387 15.215 8.69945 15.4494C8.46503 15.6839 8.33334 16.0018 8.33334 16.3333V34.6667C8.33334 34.8308 8.36567 34.9934 8.42849 35.145C8.49131 35.2967 8.58338 35.4345 8.69945 35.5506C8.81553 35.6666 8.95332 35.7587 9.10498 35.8215C9.25664 35.8843 9.41918 35.9167 9.58334 35.9167H15.4167C15.5808 35.9167 15.7434 35.8843 15.895 35.8215C16.0467 35.7587 16.1845 35.6666 16.3006 35.5506C16.4166 35.4345 16.5087 35.2967 16.5715 35.145C16.6343 34.9934 16.6667 34.8308 16.6667 34.6667V16.3333C16.6667 16.0018 16.535 15.6839 16.3006 15.4494C16.0661 15.215 15.7482 15.0833 15.4167 15.0833ZM40.4167 15.0833H34.5833C34.2518 15.0833 33.9339 15.215 33.6994 15.4494C33.465 15.6839 33.3333 16.0018 33.3333 16.3333V34.6667C33.3333 34.8308 33.3657 34.9934 33.4285 35.145C33.4913 35.2967 33.5834 35.4345 33.6994 35.5506C33.8155 35.6666 33.9533 35.7587 34.105 35.8215C34.2566 35.8843 34.4192 35.9167 34.5833 35.9167H40.4167C40.5808 35.9167 40.7434 35.8843 40.895 35.8215C41.0467 35.7587 41.1845 35.6666 41.3006 35.5506C41.4166 35.4345 41.5087 35.2967 41.5715 35.145C41.6343 34.9934 41.6667 34.8308 41.6667 34.6667V16.3333C41.6667 16.0018 41.535 15.6839 41.3006 15.4494C41.0661 15.215 40.7482 15.0833 40.4167 15.0833Z" fill="white" stroke="white" stroke-width="3" stroke-linecap="round" stroke-linejoin="round"/>
<path d="M2.08333 30.5V20.5C2.08333 20.1685 2.21503 19.8505 2.44945 19.6161C2.68387 19.3817 3.00181 19.25 3.33333 19.25H7.08333C7.41485 19.25 7.7328 19.3817 7.96722 19.6161C8.20164 19.8505 8.33333 20.1685 8.33333 20.5V30.5C8.33333 30.8315 8.20164 31.1495 7.96722 31.3839C7.7328 31.6183 7.41485 31.75 7.08333 31.75H3.33333C3.00181 31.75 2.68387 31.6183 2.44945 31.3839C2.21503 31.1495 2.08333 30.8315 2.08333 30.5ZM47.9167 30.5V20.5C47.9167 20.1685 47.785 19.8505 47.5506 19.6161C47.3161 19.3817 46.9982 19.25 46.6667 19.25H42.9167C42.5851 19.25 42.2672 19.3817 42.0328 19.6161C41.7984 19.8505 41.6667 20.1685 41.6667 20.5V30.5C41.6667 30.8315 41.7984 31.1495 42.0328 31.3839C42.2672 31.6183 42.5851 31.75 42.9167 31.75H46.6667C46.9982 31.75 47.3161 31.6183 47.5506 31.3839C47.785 31.1495 47.9167 30.8315 47.9167 30.5ZM16.6667 25.5H33.3333H16.6667Z" fill="white"/>
<path d="M16.6667 25.5H33.3333M2.08333 30.5V20.5C2.08333 20.1685 2.21503 19.8505 2.44945 19.6161C2.68387 19.3817 3.00181 19.25 3.33333 19.25H7.08333C7.41485 19.25 7.7328 19.3817 7.96722 19.6161C8.20164 19.8505 8.33333 20.1685 8.33333 20.5V30.5C8.33333 30.8315 8.20164 31.1495 7.96722 31.3839C7.7328 31.6183 7.41485 31.75 7.08333 31.75H3.33333C3.00181 31.75 2.68387 31.6183 2.44945 31.3839C2.21503 31.1495 2.08333 30.8315 2.08333 30.5ZM47.9167 30.5V20.5C47.9167 20.1685 47.785 19.8505 47.5505 19.6161C47.3161 19.3817 46.9982 19.25 46.6667 19.25H42.9167C42.5851 19.25 42.2672 19.3817 42.0328 19.6161C41.7984 19.8505 41.6667 20.1685 41.6667 20.5V30.5C41.6667 30.8315 41.7984 31.1495 42.0328 31.3839C42.2672 31.6183 42.5851 31.75 42.9167 31.75H46.6667C46.9982 31.75 47.3161 31.6183 47.5505 31.3839C47.785 31.1495 47.9167 30.8315 47.9167 30.5Z" stroke="white" stroke-width="3" stroke-linecap="round" stroke-linejoin="round"/>
</svg>
