<svg width="40" height="40" viewBox="0 0 40 40" fill="none" xmlns="http://www.w3.org/2000/svg">
<g clip-path="url(#clip0_191_6136)">
<path d="M34.1508 17.3508L21.2254 6.77509C20.512 6.19134 19.4858 6.19134 18.7723 6.77509L5.8467 17.3508C5.3971 17.7187 5.13641 18.2689 5.13641 18.8498V37.6932C5.13641 38.763 6.00358 39.63 7.07325 39.63H14.9497V28.6296C14.9497 27.8451 15.5857 27.2091 16.3701 27.2091H23.6275C24.4119 27.2091 25.0479 27.845 25.0479 28.6296V39.6302H32.9245C33.9942 39.6302 34.8613 38.763 34.8613 37.6934V18.8498C34.8611 18.2689 34.6003 17.7187 34.1508 17.3508Z" fill="#8E8E8E"/>
<path d="M39.9941 16.0036C39.9898 15.3919 39.7089 14.8152 39.2301 14.4345L22.7574 1.34201C21.9601 0.694756 20.9853 0.370884 20.0102 0.369994C20.007 0.369994 20.0038 0.369751 20.0007 0.369751C19.9914 0.369751 19.9822 0.370236 19.9728 0.370317C19.0034 0.374929 18.0353 0.698477 17.2425 1.34201L0.769833 14.4346C0.291024 14.8152 0.0101134 15.392 0.00574442 16.0037C0.00574442 16.0118 0 16.8168 0 17.5183C0 18.6355 0.905595 19.541 2.02268 19.541C3.13977 19.541 4.04536 18.6355 4.04536 17.5183C4.04536 17.3462 4.04569 17.1684 4.04625 16.9981L18.7629 5.30121C18.7629 5.30121 19.3527 4.861 20 4.861C20.6472 4.861 21.2265 5.2928 21.2265 5.2928L35.9537 16.9981C35.9543 17.1683 35.9546 17.3462 35.9546 17.5183C35.9546 18.6355 36.8602 19.541 37.9773 19.541C39.0944 19.541 40 18.6355 40 17.5183C40 16.8168 39.9943 16.0117 39.9941 16.0036Z" fill="#8E8E8E"/>
</g>
<defs>
<clipPath id="clip0_191_6136">
<rect width="40" height="40" fill="white"/>
</clipPath>
</defs>
</svg>
