<svg width="50" height="51" viewBox="0 0 50 51" fill="none" xmlns="http://www.w3.org/2000/svg">
<path d="M25 13C28.3152 13 31.4946 14.317 33.8388 16.6612C36.183 19.0054 37.5 22.1848 37.5 25.5C37.5 30.125 34.9792 34.1667 31.25 36.3333V40.0833C31.25 40.6359 31.0305 41.1658 30.6398 41.5565C30.2491 41.9472 29.7192 42.1667 29.1667 42.1667H20.8333C20.2808 42.1667 19.7509 41.9472 19.3602 41.5565C18.9695 41.1658 18.75 40.6359 18.75 40.0833V36.3333C15.0208 34.1667 12.5 30.125 12.5 25.5C12.5 22.1848 13.817 19.0054 16.1612 16.6612C18.5054 14.317 21.6848 13 25 13ZM29.1667 44.25V46.3333C29.1667 46.8859 28.9472 47.4158 28.5565 47.8065C28.1658 48.1972 27.6359 48.4167 27.0833 48.4167H22.9167C22.3641 48.4167 21.8342 48.1972 21.4435 47.8065C21.0528 47.4158 20.8333 46.8859 20.8333 46.3333V44.25H29.1667ZM41.6667 23.4167H47.9167V27.5833H41.6667V23.4167ZM2.08333 23.4167H8.33333V27.5833H2.08333V23.4167ZM27.0833 2.58334V8.83334H22.9167V2.58334H27.0833ZM10.25 7.79167L14.6875 12.25L11.7292 15.1875L7.29167 10.7708L10.25 7.79167ZM35.3125 12.2292L39.7292 7.79167L42.7083 10.7708L38.2708 15.1875L35.3125 12.2292Z" fill="#F8F8F8"/>
</svg>
