<svg width="20" height="20" viewBox="0 0 20 20" fill="none" xmlns="http://www.w3.org/2000/svg">
<path fill-rule="evenodd" clip-rule="evenodd" d="M16.8914 0.139859C17.3056 -0.0109804 17.7543 -0.0405228 18.1848 0.0547041C18.6152 0.149931 19.0095 0.36597 19.3213 0.67743C19.6332 0.98889 19.8495 1.38283 19.945 1.81294C20.0405 2.24306 20.0112 2.69148 19.8604 3.10551L14.7515 18.408C14.6272 18.7841 14.4084 19.1219 14.1161 19.3893C13.8237 19.6567 13.4676 19.8446 13.0818 19.9351C12.697 20.0288 12.2943 20.0209 11.9134 19.9122C11.5325 19.8035 11.1864 19.5978 10.909 19.3151L8.16729 16.5881L5.28832 18.0766C5.17796 18.1338 5.05458 18.1612 4.93037 18.1562C4.80616 18.1512 4.6854 18.1139 4.58003 18.0479C4.47466 17.982 4.38832 17.8898 4.32953 17.7803C4.27074 17.6708 4.24153 17.5479 4.2448 17.4238L4.36345 12.8753L14.4341 5.56545C14.5291 5.49651 14.6096 5.40954 14.6709 5.30952C14.7323 5.2095 14.7733 5.09838 14.7917 4.98251C14.8101 4.86664 14.8055 4.74829 14.7781 4.6342C14.7507 4.52012 14.7011 4.41255 14.6321 4.31762C14.5631 4.2227 14.4761 4.14228 14.376 4.08097C14.2759 4.01965 14.1647 3.97863 14.0488 3.96026C13.9328 3.94189 13.8144 3.94652 13.7002 3.97389C13.5861 4.00126 13.4784 4.05083 13.3835 4.11977L3.14267 11.5539L0.669672 9.08251C0.403149 8.81609 0.206655 8.48797 0.0976699 8.12733C-0.0113154 7.7667 -0.0294123 7.38473 0.0449891 7.01542C0.119797 6.61166 0.300756 6.23506 0.569298 5.92427C0.837839 5.61348 1.18429 5.37969 1.5731 5.24689H1.57739L16.89 0.138431L16.8914 0.139859Z" fill="white"/>
</svg>
