<svg width="50" height="50" viewBox="0 0 50 50" fill="none" xmlns="http://www.w3.org/2000/svg">
<path d="M34.4333 4.16667H15.5667C13.0604 4.16667 11.8083 4.16667 10.8 4.78958C9.79375 5.41042 9.23333 6.53125 8.1125 8.77292L5.18958 16.1667C4.5125 17.875 3.92292 19.8875 5.06042 21.3313C5.59652 22.0117 6.33138 22.5082 7.16277 22.7515C7.99415 22.9949 8.88072 22.9731 9.69913 22.6891C10.5175 22.4052 11.2271 21.8732 11.7291 21.1672C12.2311 20.4612 12.5006 19.6163 12.5 18.75C12.5 19.8551 12.939 20.9149 13.7204 21.6963C14.5018 22.4777 15.5616 22.9167 16.6667 22.9167C17.7717 22.9167 18.8315 22.4777 19.6129 21.6963C20.3943 20.9149 20.8333 19.8551 20.8333 18.75C20.8333 19.8551 21.2723 20.9149 22.0537 21.6963C22.8351 22.4777 23.8949 22.9167 25 22.9167C26.1051 22.9167 27.1649 22.4777 27.9463 21.6963C28.7277 20.9149 29.1667 19.8551 29.1667 18.75C29.1667 19.8551 29.6057 20.9149 30.3871 21.6963C31.1685 22.4777 32.2283 22.9167 33.3333 22.9167C34.4384 22.9167 35.4982 22.4777 36.2796 21.6963C37.061 20.9149 37.5 19.8551 37.5 18.75C37.4999 19.6161 37.7697 20.4607 38.2718 21.1664C38.774 21.872 39.4835 22.4037 40.3018 22.6874C41.1202 22.9711 42.0065 22.9927 42.8377 22.7493C43.6689 22.5059 44.4036 22.0095 44.9396 21.3292C46.0771 19.8854 45.4854 17.8729 44.8104 16.1646L41.8854 8.77292C40.7646 6.53125 40.2062 5.41042 39.1979 4.78958C38.1917 4.16667 36.9375 4.16667 34.4333 4.16667Z" fill="#F8F8F8"/>
<path fill-rule="evenodd" clip-rule="evenodd" d="M41.6667 44.2708H45.8333C46.2477 44.2708 46.6452 44.4354 46.9382 44.7285C47.2312 45.0215 47.3958 45.4189 47.3958 45.8333C47.3958 46.2477 47.2312 46.6452 46.9382 46.9382C46.6452 47.2312 46.2477 47.3958 45.8333 47.3958H4.16666C3.75226 47.3958 3.35484 47.2312 3.06181 46.9382C2.76878 46.6452 2.60416 46.2477 2.60416 45.8333C2.60416 45.4189 2.76878 45.0215 3.06181 44.7285C3.35484 44.4354 3.75226 44.2708 4.16666 44.2708H8.33333V26.0417C9.88333 26.0417 11.3187 25.5583 12.5 24.7354C13.7219 25.5882 15.1766 26.0442 16.6667 26.0417C18.2167 26.0417 19.6521 25.5583 20.8333 24.7354C22.0552 25.5882 23.51 26.0442 25 26.0417C26.55 26.0417 27.9854 25.5583 29.1667 24.7354C30.3885 25.5882 31.8433 26.0442 33.3333 26.0417C34.8833 26.0417 36.3187 25.5583 37.5 24.7354C38.7219 25.5882 40.1766 26.0442 41.6667 26.0417V44.2708ZM19.7917 44.2708H30.2083V38.5417C30.2083 36.5937 30.2083 35.6208 29.7896 34.8958C29.5156 34.42 29.1211 34.0248 28.6458 33.75C27.9208 33.3333 26.9479 33.3333 25 33.3333C23.0521 33.3333 22.0792 33.3333 21.3542 33.75C20.8789 34.0248 20.4844 34.42 20.2104 34.8958C19.7917 35.6208 19.7917 36.5937 19.7917 38.5417V44.2708Z" fill="#F8F8F8"/>
</svg>
