<svg width="41" height="40" viewBox="0 0 41 40" fill="none" xmlns="http://www.w3.org/2000/svg">
<path fill-rule="evenodd" clip-rule="evenodd" d="M6.0476 8.15312e-08C5.77595 -9.16768e-05 5.50991 0.0772696 5.28067 0.223012C5.05143 0.368755 4.86849 0.576837 4.75331 0.822857L0.467599 9.99143C0.362498 10.2171 0.318177 10.4662 0.339027 10.7143H0.333313V13.4143C0.333313 14.9114 0.979027 16.3457 2.13331 17.4029C3.28188 18.46 4.84474 19.0543 6.47331 19.0543H7.33046C8.93333 19.0645 10.4822 18.4755 11.6733 17.4029C12.1419 16.9743 12.5247 16.4829 12.8162 15.9514C13.179 15.4657 13.7676 15.4657 14.1076 15.9114C14.4019 16.46 14.7933 16.9629 15.2705 17.4029C16.4219 18.46 17.9847 19.0543 19.6133 19.0543H21.1476C22.7505 19.0645 24.2993 18.4755 25.4905 17.4029C25.9362 16.9914 26.3076 16.5257 26.5933 16.02C26.9676 15.4343 27.6219 15.4486 27.9647 15.9914C28.2533 16.5086 28.6305 16.9857 29.0847 17.4029C30.2362 18.46 31.799 19.0543 33.4276 19.0543H34.1933C35.7962 19.0645 37.3451 18.4755 38.5362 17.4029C39.6876 16.3457 40.3333 14.9114 40.3333 13.4143V10.7143H40.3276C40.3484 10.4662 40.3041 10.2171 40.199 9.99143L35.9133 0.822857C35.7981 0.576837 35.6152 0.368755 35.386 0.223012C35.1567 0.0772696 34.8907 -9.16768e-05 34.619 8.15312e-08H6.0476ZM3.19046 37.1429V22.0829C6.58474 23.2029 10.6333 22.7029 13.4133 20.5514C17.1219 23.42 23.5533 23.42 27.259 20.5514C30.0533 22.7114 34.0933 23.2029 37.4762 22.0543V37.1429C37.4762 37.9006 37.1752 38.6273 36.6393 39.1632C36.1035 39.699 35.3768 40 34.619 40H31.0333V29.1714C31.0327 29.0877 31.0146 29.0051 30.9802 28.9288C30.9457 28.8526 30.8957 28.7844 30.8333 28.7286C30.7001 28.6089 30.5267 28.5436 30.3476 28.5457H24.6562C24.4771 28.5436 24.3037 28.6089 24.1705 28.7286C24.1081 28.7844 24.0581 28.8526 24.0236 28.9288C23.9892 29.0051 23.9711 29.0877 23.9705 29.1714V40H6.0476C5.28984 40 4.56311 39.699 4.02729 39.1632C3.49148 38.6273 3.19046 37.9006 3.19046 37.1429ZM7.48188 30.7429V27.1429C7.48188 26.764 7.63239 26.4006 7.9003 26.1327C8.16821 25.8648 8.53158 25.7143 8.91046 25.7143H17.5219C17.9008 25.7143 18.2641 25.8648 18.532 26.1327C18.7999 26.4006 18.9505 26.764 18.9505 27.1429V30.7429C18.9505 31.1217 18.7999 31.4851 18.532 31.753C18.2641 32.0209 17.9008 32.1714 17.5219 32.1714H8.91046C8.53158 32.1714 8.16821 32.0209 7.9003 31.753C7.63239 31.4851 7.48188 31.1217 7.48188 30.7429Z" fill="#8E8E8E"/>
</svg>
